<?xml version="1.0" encoding="UTF-8" standalone="no"?>
<!-- Created with Inkscape (http://www.inkscape.org/) -->

<svg
   xmlns:dc="http://purl.org/dc/elements/1.1/"
   xmlns:cc="http://creativecommons.org/ns#"
   xmlns:rdf="http://www.w3.org/1999/02/22-rdf-syntax-ns#"
   xmlns:svg="http://www.w3.org/2000/svg"
   xmlns="http://www.w3.org/2000/svg"
   xmlns:sodipodi="http://sodipodi.sourceforge.net/DTD/sodipodi-0.dtd"
   xmlns:inkscape="http://www.inkscape.org/namespaces/inkscape"
   width="128mm"
   height="128mm"
   viewBox="0 0 120 120"
   version="1.1"
   id="svg8"
   inkscape:version="0.92.3 (2405546, 2018-03-11)"
   sodipodi:docname="qt-todo.svg">
  <defs
     id="defs2" />
  <sodipodi:namedview
     id="base"
     pagecolor="#ffffff"
     bordercolor="#666666"
     borderopacity="1.0"
     inkscape:pageopacity="0.0"
     inkscape:pageshadow="2"
     inkscape:zoom="1.979899"
     inkscape:cx="168.08837"
     inkscape:cy="227.46363"
     inkscape:document-units="mm"
     inkscape:current-layer="layer1"
     showgrid="false"
     inkscape:window-width="1920"
     inkscape:window-height="960"
     inkscape:window-x="0"
     inkscape:window-y="27"
     inkscape:window-maximized="1" />
  <metadata
     id="metadata5">
    <rdf:RDF>
      <cc:Work
         rdf:about="">
        <dc:format>image/svg+xml</dc:format>
        <dc:type
           rdf:resource="http://purl.org/dc/dcmitype/StillImage" />
        <dc:title />
      </cc:Work>
    </rdf:RDF>
  </metadata>
  <g
     inkscape:label="Layer 1"
     inkscape:groupmode="layer"
     id="layer1"
     transform="translate(-53.672619,-36.952377)">
    <path
       style="fill:#1e1e1e;stroke:none;stroke-width:0.24804688px;stroke-linecap:butt;stroke-linejoin:miter;stroke-opacity:1;fill-opacity:1"
       d="m 83.672618,36.95238 c -14.910839,-0.06699 -30.263152,14.12181 -29.999999,30 l 0,60 c -0.157956,17.81792 15.014953,29.66306 29.999999,30 h 60.000002 c 16.44038,0.17198 30.06472,-12.89236 30,-30 v -60 c -0.0771,-16.616937 -13.81089,-30.086138 -30,-30 z"
       id="path60"
       inkscape:connector-curvature="0"
       sodipodi:nodetypes="ccccccccc" />
    <path
       style="fill:#1e5a1d;fill-opacity:1;stroke:none;stroke-width:0.18603076px;stroke-linecap:butt;stroke-linejoin:miter;stroke-opacity:1"
       d="M 91.174449,51.952684 C 79.991653,51.902444 68.477761,62.543857 68.67512,74.45229 v 44.99922 c -0.118463,13.36321 11.260879,22.24691 22.499329,22.49961 h 44.998661 c 12.32992,0.12898 22.54787,-9.6691 22.49933,-22.49961 V 74.45229 C 158.61462,61.989806 148.31458,51.888082 136.17311,51.952684 Z"
       id="path60-3"
       inkscape:connector-curvature="0"
       sodipodi:nodetypes="ccccccccc" />
    <path
       style="fill:#4ce652;fill-opacity:1;stroke:none;stroke-width:0.17440383px;stroke-linecap:butt;stroke-linejoin:miter;stroke-opacity:1"
       d="M 92.580584,54.765175 C 82.096712,54.718075 71.30244,64.6944 71.487464,75.858556 v 42.186754 c -0.111059,12.52801 10.557073,20.85647 21.09312,21.09338 h 42.186246 c 11.55931,0.12092 21.13862,-9.06477 21.09312,-21.09338 V 75.858556 c -0.0542,-11.683579 -9.71049,-21.153945 -21.09312,-21.093381 z"
       id="path60-3-6"
       inkscape:connector-curvature="0"
       sodipodi:nodetypes="ccccccccc" />
    <path
       style="fill:#96dc96;stroke:none;stroke-width:0.24804688px;stroke-linecap:butt;stroke-linejoin:miter;stroke-opacity:1;fill-opacity:1"
       d="m 85.741538,92.991722 -10.27623,15.768698 33.131972,23.74163 43.58538,-47.306088 -15.94587,-22.324218 -29.2341,49.963726 z"
       id="path4600"
       inkscape:connector-curvature="0"
       sodipodi:nodetypes="ccccccc" />
    <path
       style="fill:#ffffff;fill-opacity:1;stroke:none;stroke-width:0.22385237px;stroke-linecap:butt;stroke-linejoin:miter;stroke-opacity:1"
       d="M 86.263728,95.953576 78.09825,108.33731 108.28068,129.34865 149.53829,84.89177 136.3018,66.181525 106.87741,116.46867 Z"
       id="path4600-7"
       inkscape:connector-curvature="0"
       sodipodi:nodetypes="ccccccc" />
  </g>
</svg>
